<?xml version="1.0" encoding="utf-8"?>
<!-- Generator: Adobe Illustrator 21.0.0, SVG Export Plug-In . SVG Version: 6.00 Build 0)  -->
<svg version="1.1" id="d1" xmlns="http://www.w3.org/2000/svg" xmlns:xlink="http://www.w3.org/1999/xlink" x="0px" y="0px"
	 viewBox="0 0 2551.2 2267.7" style="enable-background:new 0 0 2551.2 2267.7;" xml:space="preserve">
<style type="text/css">
	.st0{fill:#2A2A2A;}
</style>
<g id="_x31__1_">
	<path id="_x38_" class="st0" d="M1047.6,388.3C951.3,369,866.4,484.9,925.8,571C915.4,459.2,974.5,416.8,1047.6,388.3z"/>
	<path id="_x37_" class="st0" d="M1374.2,698.4c0.1-49.8,20.6-108.5,5.5-155c-8.7,54-50.4,75.1-105.2,83.1
		c22-31.9,36.2-110.4,27.7-138.4c-13.6,49.2-81.6,62.2-94.1,132.9c-9.7,54.4-1.8,105.3,11.1,177.2
		C1218,712,1309.6,718.7,1374.2,698.4z M1313.3,648.6c18.8,28.9-52.4,61.4-83,77.5C1230.9,673.2,1275.7,664.5,1313.3,648.6z"/>
	<path id="_x36_" class="st0" d="M1069.7,792.5c4.7-40.9,13.1-100.8-5.5-132.9c9,1.6,8.6,8.1,11.1-5.5
		c13.8-75.8-67.6-118-99.7-160.6c-4.6,52.6,22.3,103.1,22.1,132.9c-55.4-11-89.8-43-105.2-94.1c6.6,58,6.5,122.7,22.1,171.6
		C991.5,708.4,1051.4,729.6,1069.7,792.5z M1053.1,726.1c-37.9-19.3-81-33.4-94.1-77.5C1006,658.8,1046.7,675.3,1053.1,726.1z"/>
	<path id="_x35_" class="st0" d="M1357.6,571c60-84.6-33.9-209.6-121.8-177.2C1317.1,409.1,1364.9,485.4,1357.6,571z"/>
	<path id="_x34_" class="st0" d="M1147.2,886.6c12.7-7.6,17.8-22.8,27.7-33.2c-21.8-1.5-16.9,23.7-38.8,22.1
		c-10.2-1.4-19.4-31.5-27.7-16.6C1121.4,868.2,1121.8,889.9,1147.2,886.6z"/>
	<path id="_x33_" class="st0" d="M871,1701.6c0,18.3,0.1,36,0.4,53.2c0.3,17.2,0.6,32.6,1.1,46.3c0.5,16,0.8,31.3,0.8,46
		c14.7-0.4,26.2-5.9,34.6-16.5c8.4-10.5,12.5-28.1,12.5-52.8c0-24.3-3.9-43.3-11.8-57.3C900.8,1706.5,888.3,1700.2,871,1701.6z"/>
	<path id="_x32_" class="st0" d="M571.4,1714c-1.7-11.2-4-18.6-6.9-22.3c-2.9-3.7-6.3-5.5-10.2-5.5c-4.9,0-8.8,2.1-11.7,6.2
		s-5.1,12.3-6.6,24.5s-2.4,29.2-2.9,51.2c-0.5,21.9-0.7,50.4-0.7,85.5c0,35.6,0.5,64,1.4,85.2c1,21.2,2.3,37.4,4,48.6
		s4,18.5,6.9,21.9s6.6,5.1,11,5.1c3.4,0,6.5-1.7,9.1-5.1c2.7-3.4,4.9-10.7,6.6-21.9c1.7-11.2,2.9-27.8,3.7-49.7
		c0.7-21.9,1.1-51.7,1.1-89.2c0-35.6-0.4-64.1-1.1-85.5C574.3,1741.6,573.1,1725.2,571.4,1714z"/>
	<path id="_x31_" class="st0" d="M2477.7,1483.3c-115.6,17.1-283.7,28.5-478.9,35.3c-3.2-3.5-7.4-8.2-12.3-14.1
		c-21.4-25.6-55.8-71.4-87.5-121.4c-15.9-25-31-51.1-43.5-76.1c-12.5-25.1-22.3-49.2-27.6-70c-2.3-9.1-7.7-16.3-14.2-21.4
		c-9.8-7.8-21.9-11.7-33.4-14.4c-11.5-2.7-22.6-4-29.8-5.3c-52.1-9.5-117.1-29.8-168.6-50.2c-25.8-10.2-48.2-20.4-63.8-29.1
		c-7.8-4.3-13.9-8.3-17.7-11.4c-1.9-1.5-3.1-2.8-3.6-3.5c0.1-7,1.1-16.8,2.8-28.4c6.1-42.9,21.4-110.7,35.7-171.7
		c7.2-30.5,14.1-59.3,19.5-82.5c2.7-11.6,5-21.8,6.9-30.2c1.8-8.4,3.1-14.9,3.8-19.4h-0.1l0,0l-7.7-4.2
		c-31.8-17.4-69.5-31.3-111.2-41.2c0.3-20.3-2.6-43.1-10-68.9c-13.8-47.8-17.1-70.1-9.2-83c12.8-21,51-74.5,67.7-118.4
		c12.3-32.3,43-65.1-43.6-224.3c-95.8-175.9-50.3-140.4-50.3-166.9s-100.5,34.4-127.3,82.1c-29,49.8-18.1,129.1-59.7,171.6
		c-66.3-15.3-91.5-11.2-155,5.5c-44.3-157.1-44-255-188.2-260.2c1.9,175.8-123.5,220.5-105.2,371c2.5,20.3,30.6,59.1,42.2,76.5
		c81.5,122-12.7,220.2,50.8,299.8c5.6,7,11.8,14.8,18.5,23.1c-37.3,24.1-63.7,44.6-81.8,62.1c-11.5,11.2-19.7,21.3-25.2,30.5
		c-5.4,9.2-8.2,17.8-8.2,25.9c0,4.8,1.1,9.2,2.9,13.2l-0.2,0.1c0,0,0.2,0.3,0.4,0.8c0.9,2,2.9,6.3,5.4,12.3
		c8.9,20.9,25.5,61.9,40.6,100.5c7.6,19.3,14.8,37.9,20.5,53.1c2.1,5.7,4.1,10.9,5.7,15.5c-10.2,13.9-23.5,25.9-34.3,32.7
		c-2.6,1.7-6.7,3.9-11.4,6.5c-7.2,3.8-15.9,8.2-24.3,12.4c-8.4,4.3-16.6,8.4-22.8,12c-1.1,0.7-4.2,2.1-8.1,3.7
		c-6.9,2.9-16.9,6.8-28,10.9c-16.7,6.2-35.9,13-51.8,18.6c-7.9,2.8-15,5.4-20.6,7.4c-2.8,1-5.2,1.9-7.2,2.6
		c-1.8,0.7-3.1,1.2-4.3,1.7c-0.2,0-0.9,0.1-2,0.1c-2.1,0-5.4-0.2-9.1-0.3c-2.4,0-5.1,0.1-8.1,0.7c-2.2,0.4-4.5,1.1-6.9,2.3
		c-3.6,1.7-7.1,4.9-9.3,9s-3,8.7-3,13.5c0,7.1,1.7,15.1,5.2,25.3c0.9,2.6,1.6,7.1,1.6,12.7c0,7.2-1,16.4-2.9,26.7
		c-3.3,18.1-9.3,39.8-16.6,62.2c-11,33.6-24.9,68.9-37.2,97.3c-200-9.7-364.5-22-462.4-35.6c9.4,221.9,14.7,538.2,8.1,764.7
		c248.4-30.2,1179.4-132.6,2395.2-11.9C2455.3,2059.7,2461.6,1678.7,2477.7,1483.3z M1601,1197.5c6.4-6.5,12.1-13,16.5-19.8
		c42.9,14.9,89.6,28.2,129.7,35.5c5.4,1,11.9,1.9,18.7,3.1c10.2,1.8,21.1,4.4,29.4,8.5c4.2,2.1,7.6,4.5,10.2,7.2s4.3,5.6,5.2,9.3
		c7.2,28.5,21.6,60.6,39.2,93.3c26.4,48.9,60.2,98.8,88.5,137c14.2,19.1,27,35.3,36.9,47c0.2,0.3,0.4,0.5,0.6,0.7
		c-95.3,3.1-196.8,5.1-301.5,6.1c14.9-24,31.5-48.7,46.4-69.6c9.6-13.5,18.5-25.4,25.7-34.5c3.6-4.5,6.8-8.4,9.4-11.4
		c2.6-2.9,2.6-2.9,2.6-2.9c1.7-1.6,0.5-5.9-2.6-9.7c-3.1-3.8-7.2-5.4-9.2-3.6c0,0,0,0-2.1,2.2c-3.9,4.2-8.7,10-14.2,17.1
		c-19.4,24.8-48.2,65.8-72.5,105.1c-1.5,2.5-3,4.9-4.5,7.3c-7.3,0.1-14.7,0.1-22,0.2c6.5-16.2,14.4-33.1,23.2-50.1
		c23.1-44.8,52-90.1,76.1-125.2c12-17.5,22.9-32.5,31.2-43.6c4.2-5.5,7.7-10.1,10.4-13.4c1.3-1.7,2.5-3.1,3.4-4.1s0.9-1,0.9-1
		c0.5-0.5-1.9-3.7-5.4-7.2c-3.4-3.5-6.8-5.7-7.5-4.9c0,0,0,0-0.8,0.9c-2.8,3.3-7.4,9-13.4,16.9c-21,27.7-59.3,81.9-92.5,140.3
		c-16.6,29.2-32,59.4-43.3,87.9c-0.5,1.3-1,2.6-1.5,3.9c-7.1,0-14.2,0.1-21.3,0.1c0.8-30.9,3.2-63.7,6.1-92.6
		c1.8-17.8,3.8-34,5.8-47.2c1.9-13.2,1.9-13.2,1.9-13.2c1.9-8.7-0.5-16.9-5.2-18.1s-10.2,5.6-12.3,15.2c0,0,0,0-2,13.6
		c-5.3,35.7-10.8,91.4-12.1,142.4c-52.6,0.2-105.8,0.2-159.2,0l-2-59.4c-0.2-15.1-0.3-31.2-0.3-47c0-22.6,0.2-44.7,0.5-62.4
		c0.2-8.8,0.4-16.5,0.7-22.6c0.2-5.4,0.5-9.6,0.8-11.8c0.3-0.5,1.1-1.4,2.3-2.5c3-2.8,8.4-6.6,15.2-11c12-7.7,28.6-17.2,46.9-27.9
		c27.6-16,59.3-34.5,86.3-54C1578.4,1217.8,1590.8,1207.8,1601,1197.5z M1520.8,885.7c-1.1,1-2.4,2.1-3.9,3.3
		c-13.4,10.9-39.2,28.7-68.3,45.9c-29.1,17.2-61.5,33.8-88,42.4l-0.9,0.3l-0.8,0.6c-2.6,1.9-5,4.4-7.7,7.6c-5,6-10.8,14.4-17.3,24.7
		c-22.7,36.2-54.1,96.3-80.2,148.3c-13,26-24.7,50-33.2,68c-4.3,9-7.7,16.4-10.2,21.9c-1.2,2.7-2.2,5-3,6.7
		c-0.4,0.9-0.7,1.6-0.9,2.2c-0.2,0.7-0.4,1.1-0.6,1.9c-0.1,0.6-0.3,1.3-0.3,2.2c0,0.8,0.1,1.9,0.6,2.9c0.6,1.7,2.2,3.2,3.6,3.8
		c1.4,0.7,2.6,0.8,3.5,0.8c1.4,0,2.5-0.3,3.5-0.6c1.8-0.5,3.6-1.3,5.6-2.3c3.5-1.7,7.7-4,12.2-6.6c6.8-3.9,14.4-8.3,21.4-12
		c3.5-1.8,6.8-3.4,9.7-4.7c0.4-0.2,0.7-0.3,1.1-0.4c-0.3,2.2-0.8,4.9-1.6,8c-2.3,10.3-6.5,25-11.5,42.6c-7.5,26.4-16.6,59.3-24,94.2
		c-7.3,34.9-12.8,71.8-12.8,106.3c0,10.5,0.5,20.7,1.6,30.6c-26.9-0.4-53.8-0.8-80.5-1.2c5.4-25.3,14.7-47.4,24.3-65.1
		c7.2-13.5,14.5-24.5,20-32.4c2.7-4,5-7.2,6.7-9.7c0.9-1.3,1.6-2.3,2.2-3.4c0.3-0.5,0.6-1,0.9-1.7c0.2-0.6,0.5-1.3,0.6-2.6
		c0-0.2,0.2-0.8,0.5-1.6c1.1-3.4,3.7-10.2,6.8-18.5c4.8-12.6,10.9-28.9,15.9-44.4c2.5-7.8,4.7-15.3,6.3-22.2
		c1.6-6.9,2.6-13,2.6-18.3c0-3.4-0.3-6.5-2-9.6c-0.8-1.6-2.1-3.2-3.9-4.3c-1.8-1.1-3.9-1.6-5.8-1.6c-0.6,0-1.3,0.1-1.9,0.1
		c-5.6,0.8-11.1,2.8-16.5,5.3c-8.1,3.7-15.9,8.5-22.2,12.3c-1.4,0.8-2.7,1.6-3.9,2.3c2.2-9,5.5-22.4,9.2-37.8
		c4.4-18,9.5-38.7,14.5-57.9c23.5-38.8,84.7-138.7,89.2-146.1c18.7-30.6,35.5-58.1,48.5-80c6.5-10.9,12.1-20.5,16.6-28.3
		c4-7,7-12.4,9-16.6c0.8-0.6,1.8-1.4,3-2.3c3.5-2.5,8.7-5.7,15.1-9.4c11.1-6.5,25.9-14.5,42.2-24.1c24.6-14.3,52.9-31.9,79.1-53.1
		c15.8-12.8,30.9-27,43.8-42.6C1533.9,830.6,1527.5,857.1,1520.8,885.7z M1044.1,1514.7c0.2,1,0.5,2,1,3s1.2,2.1,2.2,3.1l0.1,0.1
		l0.1,0.1c0.2,0.2,0.4,0.4,0.6,0.6c-24.1-0.5-48.1-1.1-71.9-1.6c3.7-24.9,7.4-57,7.4-71.2c0-30-3.6-56.9-7.2-77.4
		c-1.6-8.9-3.1-16.5-4.4-22.7c1.6,0.4,3.2,0.7,4.8,1c4.6,0.8,9.3,1.1,13.7,1.1c4.3,0,8.2-0.3,11.7-1.1c1.8-0.5,3.5-0.9,5.5-2.2
		c1-0.6,2.1-1.5,3.2-2.9c1.1-1.4,2-3.7,2-6c0-2.5-1-4.6-1.9-6c-0.7-1-1.4-1.7-2.1-2.3c-1.6-1.6-3.3-4-4.8-7
		c-1.7-3.3-3.3-7.3-4.8-11.7c13.2,9.3,20.4,14.3,25.4,17.4c3,1.9,5.4,3.1,7.8,4.1c0.6,0.2,1.1,0.4,1.6,0.6
		c9.7,27.1,19.6,53.3,29.9,77.4l1.3,3.1c-2.3,7.7-6.8,22.9-11.1,39.2c-2.7,10.2-5.3,20.8-7.3,30.5s-3.3,18.2-3.3,24.8
		C1043.5,1510.8,1043.7,1512.8,1044.1,1514.7z M938,1193.9c-3.9-7.2-11-22.2-19.9-40.9c-6.2-13.1-13.4-28.1-20.9-43.7
		c8.2-6.1,13.2-9.5,18.3-13.1c4.2-3,8.3-6.1,13.8-10.6c34.8,69.1,88.6,202,98.1,229.5c-5.6-3.7-14.3-9.8-28.8-20.1
		c-1.9-1.4-9.5-8.2-9.5-8.2c-4.7-4.6-9-9.8-12.9-15.5c-9.7-14-17-30.2-22.5-43.8c-2.8-6.8-5.1-13-7.2-18c-1-2.5-2-4.7-3-6.7
		s-1.9-3.6-3.3-5.2l0,0C939.8,1197.1,939,1195.8,938,1193.9z M999,1049.8c0.6,2.3,26.3,107.2,39.9,166.4
		c8.5,37.1,16.7,74.2,22.8,104.2c3,15,5.5,28.2,7.3,38.8c0.9,5.3,1.5,9.8,2,13.6c0.5,3.7,0.7,6.7,0.7,8.5h2.6
		c-0.7,1.3-1.3,2.6-1.9,3.9c-19.3-48-37.8-103.2-55.9-157.1c-20.6-61.1-40.9-120.5-62.3-166.2l-0.4-0.8l-0.5-0.7
		c-4.2-5.7-8.7-9.9-13.1-12.9c-5.4-3.8-10.5-5.7-14-7c0.6-1,1.4-2.2,2.3-3.5c2.3-3.3,5.5-7.6,9.8-13.1c5.5-4.8,10.1-9.5,14.4-14
		c6.7-7.1,12.6-13.9,21.1-21.4c5.5-4.9,12.3-10.1,21-15.9c3.9,4.3,7.8,8.6,11.7,12.8c-1.2,3.3-2.6,6.9-4.1,10.8
		c-3.1,8.5-6.2,18.7-6.2,31.3C996,1034.3,996.9,1041.7,999,1049.8z M1217.5,1091.7c-18.2,6.7-39.8,13.5-59.2,19.1
		c-9.7,2.8-18.8,5.2-26.8,7.2c-7.9,1.9-14.6,3.3-19.1,4h-0.8c-1.4,0-4.4-0.5-8.2-2.1c-6.6-2.6-15.3-7.9-24.3-14.5
		c-13.6-9.8-28.1-22.6-39.9-33.7c-5.9-5.6-11.1-10.8-15.3-15c-4.1-4.2-14.8-23.7-14.8-29.3c0-10.4,2.5-18.8,5.4-26.7
		c0.6-1.5,1.1-3.1,1.7-4.6c37.5,39.4,71.6,69,92.1,72.4c51.1,8.6,79.1,8.6,127.3-41.7c48.3-50.3,36.9-57.2,58.8-79.7
		c0.6-0.6,1.4-1.3,2-1.9c0.5,9.5,1.3,21.1,2.6,31.5c0.7,5.8,1.6,11.2,2.7,15.7c0.4,1.4,0.8,2.8,1.2,4c-7.9,13.1-16.8,27.7-26.3,43.2
		c-6.9,11.4-14.2,23.3-21.7,35.5c-1.5,1-4.1,2.6-7.3,4.2C1240.4,1082.9,1229.7,1087.3,1217.5,1091.7z M1234.2,1109.1
		c-28.5,46.5-58.8,96.2-86,141.7c-20.7,34.7-39.5,66.9-54.3,93.5c-3.9,7-7.5,13.6-10.8,19.8c-2.3-15.4-6.6-37.8-12.1-64
		c-14.3-68.1-36.4-161.1-49.5-214.8c9.3,8.9,20.5,19,32.1,28.3c9.8,7.9,19.8,15.2,29.5,20.7c4.8,2.8,9.6,5.1,14.3,6.8
		c4.7,1.7,9.4,2.9,14.4,2.9c1.4,0,2.7-0.1,4.1-0.3c8.5-1.3,20.6-4.2,34.8-8c21.2-5.7,46.8-13.5,68.9-21.4
		C1224.7,1112.7,1229.6,1110.9,1234.2,1109.1z M953.4,983.3c-5.2,5.2-9.5,10-13.7,14.5c-4.3,4.6-8.5,8.9-13.7,13.3l-0.7,0.6
		l-0.6,0.7c-5.9,7.7-10.1,13.3-13,17.8c-1.4,2.3-2.6,4.2-3.5,6.2s-1.6,4.2-1.7,7c0,1.3,0.2,2.7,0.7,4.1c0.8,2.4,2.5,4.3,4,5.5
		c2.9,4.3,6.1,9.8,9.8,16.5c-6.8,5.7-11.1,8.9-15.7,12.2c-4.3,3-9,6.2-15.9,11.3c-6.2-12.7-12.6-25.4-18.9-37.6
		c-8.4-16.4-16.7-31.7-24.4-44.6c-7-11.8-13.4-21.4-19.1-28l-0.6-7.8c1-1.5,2.2-3.3,3.6-5.3c11.1-15.8,35.5-45.9,69.2-75.2
		c5.3-4.7,11-9.3,16.8-13.8c21.1,25.7,44,53.1,66.7,78.8C969.7,968.2,960.7,976.1,953.4,983.3z M1059.8,1486.5
		c2.8-13.9,7.2-30.4,11.1-44.3c3.7-13.1,6.9-23.7,8.1-27.8l1.3-3.7c2.7-7.6,8.9-20.4,17.4-36.5c15-28.3,37.4-67,62.9-109.7
		c2.6-4.4,5.3-8.9,8-13.4c-1.3,5.4-2.6,10.7-3.9,15.7c-5.1,20.7-9.2,38-11.1,45.3c-0.3,1.2-0.5,2.4-0.5,3.8c0,0.9,0.1,1.8,0.4,2.9
		c0.5,1.6,1.7,3.5,3.4,4.5c1.7,1.1,3.4,1.3,4.6,1.3c2.5-0.1,4.1-0.7,5.9-1.4c3.1-1.3,6.3-3.2,10-5.3c5.5-3.2,11.8-7.1,18.1-10.4
		c5.6-2.9,11.1-5.1,15.6-6c0.1,0.5,0.1,1.1,0.1,1.9c0,2.6-0.4,6.2-1.3,10.4c-2.9,14.9-10.5,37-17.4,55.5c-3.4,9.3-6.7,17.8-9.1,24.2
		c-1.2,3.2-2.2,6-2.9,8.1c-0.4,1.1-0.7,2-0.9,2.9c-0.1,0.4-0.2,0.8-0.3,1.3c0,0.1,0,0.3-0.1,0.4c-0.2,0.3-0.4,0.6-0.7,1.1
		c-1.1,1.6-2.9,4.2-5.1,7.4c-12.5,17.9-38.9,56.8-49.2,108.4c-19-0.3-38-0.7-56.9-1.1c-3.7-3.8-7.2-7.3-10.5-10.2
		c-0.1-0.6-0.2-1.6-0.2-3.1C1056.8,1503.9,1057.9,1495.7,1059.8,1486.5z M1445.2,742c35.7,8.7,68.1,20.4,95.8,34.6
		c-9.8,15.7-22.5,30.4-36.8,44c-5.8-3.9-12.8-7.2-20.7-10c-16.9-6.1-37.3-10.3-54.2-12.8C1436.7,782.2,1442.8,763.8,1445.2,742z
		 M1452.6,815.6c9.2,2.1,18.4,4.6,26.4,7.5c5.8,2.1,10.9,4.4,15,6.7c-28.3,24.7-61.3,45.3-89.3,61.5c-14.6,8.5-27.9,15.8-38.6,21.9
		c-5.4,3.1-10.1,5.9-14.1,8.5s-7.2,5-9.9,7.6l-1.1,1.1l-0.7,1.4c-1.3,2.6-3.4,6.7-6.3,11.9c-5,9-12.2,21.3-21.1,36.1
		c-0.3-1.8-0.5-3.7-0.8-5.6c-1.1-9.2-1.8-19.6-2.3-28.4c-0.2-4.1-0.4-7.9-0.5-10.9c21.4-15.6,53.1-34.8,75.9-72.7
		c6.6-10.9,23.2-27.3,37.4-51.9C1431.7,811.5,1442.2,813.2,1452.6,815.6z M1406.3,756.8c1.7-0.4,3.6-0.8,5.5-1.1
		c-7.4,31.7-20.6,59.2-37.6,81.2C1369.3,814.9,1399.8,788.2,1406.3,756.8z M870.4,637.5c17.8-4.9,7.6,18.2,22.1,16.6
		c-22.4-122.9,0.7-244.6,105.2-271.3c-63-44.9-2.8-178.7-66.4-221.5c-28.5,93.2-107.9,215.3-43.1,297.7
		c-7.9,25.3-14.3,53.4-15.4,85.6c-31.1-43.3-68.3-77.9-74.4-134.1c-12.9-119.1,109.9-192.9,110.7-310.1
		c110.3,18.9,76,182.4,138.4,249.1c69.9-19.1,113.6-20.2,182.7,0c68-61.2,31.3-227.1,138.4-249.1c6.4,116.4,131.2,189.7,110.7,321.1
		c-8.2,52.7-46.6,75.9-66.4,127.3c-2.3-33.2-9-64.3-22.1-84.5c65.3-95.8-13.5-208.2-38.8-303.1c-61.7,10.3-7.3,184.6-66.4,215.9
		c95.8,35,133.8,159.2,99.7,276.8c18.1,2.8,11.7-27.5,27.7-11.1c7.1,37.2,6.8,71.8,0.9,102.9c-2.1,0.7-4.3,1.5-6.4,2.3
		c-63.4,17.2-93.5,67.7-119.9,121.9l0,0c-6.5,13.4-34.3,46-73.8,55.2c-50.2,3.3-113.9-6.9-155,5.5c-13-6.8-44.3-27.7-62-55.3
		c-31.5-54.3-60.2-124-126.3-121.9c-2.5-0.8-4.7-1.4-6.8-2C857.1,709.1,870.4,668.6,870.4,637.5z M865.3,761
		c2.5,0.3,5.7,0.7,10.2,1.2c16.5,28.8,27.1,63.5,50.2,85.6c4.2-19.3-16.8-41.8,0-55.4c30.7,13.5,45.1,57.7,62.9,86.3
		c18.7,34.5,59.5,57.2,71.5,76.4V955c2.6,7.3,7.5,12.3,15.1,14.5c10.9-3.8-1.4-30.9,11.1-33.2c33.4,8.6,67.9,4.6,102.7,1.2
		c4.7-0.4,13.5-0.4,13.5,5.4c0,7.2-2.3,24.9,0,26.6c0.3,0.2,0.6,0.2,1-0.1c8.3-0.4,13.5-3.1,16.3-7.1l0,0l0,0
		c1.3-1.8,2.1-3.9,2.5-6.2c9.6-20.4,32.6-35.7,47.3-48.8c-0.2,0.4-0.4,0.9-0.6,1.3c2.6-2.5,5-5.1,7.4-7.9c1.3-1.4,2.5-2.9,3.4-4.3
		c26.2-34.4,36.3-85,77.8-104.1c17.5,80.7-53.3,112.4-88.6,149.5c-40.8,42.9-74.6,128.1-166.1,94.1
		C1062.9,1021.3,880.9,824.1,865.3,761z M782,959c-1.8-2.4-2.7-4.8-2.8-8.4c0-3.9,1.4-9.6,5.8-17c6.5-11.1,19.4-25.7,41.1-43.6
		c15.7-12.9,36-27.7,61.7-44.2c6.3,7.8,12.9,16,19.8,24.5c-11.3,8.9-21.8,18-31.4,27.1c-18.2,17.2-33,33.8-43.9,47.2
		c-5.4,6.7-9.9,12.6-13.2,17.4c-2.6,3.7-4.6,6.7-5.9,9c-8.2-0.6-16.6-2.5-22.6-5.5C786.7,963.6,783.8,961.3,782,959z M845.7,1170.3
		c2.8,5.3,7.1,12.2,12.5,20.4c9.8,14.6,22.9,32.7,35.7,49.1c6.4,8.2,12.8,16,18.6,22.7c5.9,6.7,11.2,12.3,15.8,16.4
		c0.6,0.5,1.2,1,2,1.5c0.9,0.4,2,1,3.9,1.1c1.2,0,2.7-0.3,3.9-1.2c0.9-0.6,1.6-1.4,2.1-2.1c0.7-1.1,1-2,1.1-2.8s0.2-1.4,0.2-1.9
		c0-1.3-0.2-2.4-0.4-3.5c-0.9-4.4-3-10.5-6.1-18.5c-10.8-27.9-33.7-78-54.5-122.6c-10.4-22.3-20.2-43.2-27.7-59.2
		c-3.7-8-6.9-14.8-9.2-19.9c-1.2-2.5-2.1-4.7-2.8-6.3c-0.7-1.6-1.2-2.8-1.3-3.2c-0.9-2.4-2.1-4.5-3.6-6.2c-1.4-1.5-3-2.7-4.6-3.6
		c-2.9-1.5-5.7-1.9-8.2-2.3c-3.8-0.5-7.2-0.7-10.7-1.7c-3.2-0.9-6.4-2.5-10.1-5.8c-5.7-14-10.9-26.9-15.2-37.3
		c1.5,0.6,3.1,1.2,4.7,1.7c8.1,2.5,31.9,15,36.9,22.9c8.8,13.8,19.1,32.6,29.7,53c15.8,30.7,32.3,65.2,45.4,92.8
		c6.6,13.8,12.3,25.8,16.7,34.9c2.2,4.5,4.1,8.3,5.6,11.2c0.8,1.4,1.4,2.7,2.1,3.7c0.6,1.1,1.1,1.8,1.9,2.8c0,0,0.4,0.5,0.8,1.2
		c0.8,1.4,1.8,3.7,3,6.6c4.2,10.2,10.3,27.3,19.3,44.6c5.8,11.2,12.8,22.5,21.5,32.4c2.6,8.8,5,18.5,8.2,27.5
		c1.6,4.6,3.4,9,5.5,13.1c0.3,0.5,0.6,1,0.8,1.5c-4.2-0.1-9-0.6-12.9-1.5c-2.2-0.5-4-1.2-5.4-1.8c-1.4-0.6-2.1-1.3-2.2-1.4
		c-0.5-0.6-1.1-1.1-2-1.9c-0.5-0.4-1.1-0.8-2-1.1c-0.9-0.4-2.1-0.8-3.7-0.8c-1,0-2.2,0.2-3.3,0.6c-2,0.7-3.4,2.1-4.2,3.3
		c-1.2,1.8-1.4,3.1-1.6,4c-0.2,0.9-0.2,1.6-0.2,2.2c0,1.1,0.1,2.1,0.2,3.1c0.5,3.8,1.6,8.8,3,15.6c4.1,20.2,11,55,11,95.3
		c0,14.5-4.4,47.3-8.2,70.8c-33.9-0.9-67.4-1.8-100.6-2.8c0.2-9.1,1-23.8,2-41.2c1.8-30.8,4.4-70.1,6.5-102.2
		c1.1-16.1,2.1-30.4,2.8-41c0.3-5.3,0.6-9.7,0.8-12.9c0.1-1.6,0.2-3,0.2-4c0-1.1,0.1-1.7,0.1-2.5c0-0.9-0.1-1.5-0.2-2.1
		c-0.2-1-0.3-1.7-0.5-2.4c-0.4-1.4-0.9-2.8-1.5-4.5c-2.2-6.3-6.3-16.1-11.2-27.7c-7.3-17.4-16.5-38.8-24-56.6
		c-3.7-8.9-7-16.9-9.4-23c-0.5-1.4-1-2.7-1.5-3.9C829.6,1186.6,838,1179.1,845.7,1170.3z M608.2,1277.2c0.2-0.1,0.5-0.2,1.1-0.3
		c0.9-0.1,2.2-0.2,3.7-0.2c2.6,0,5.7,0.2,9.1,0.3c1.5,0,3-0.1,4.7-0.3c1.7-0.2,3.6-0.6,5.8-1.6c0.3-0.1,1.2-0.5,2.3-0.9
		c4.4-1.7,13.3-4.9,24.1-8.7c16.3-5.8,37.1-13.1,55.3-19.9c9.1-3.4,17.5-6.6,24.5-9.4c2.1-0.8,4-1.6,5.7-2.4
		c2.3,4.5,4.9,9.7,7.7,15.4c7.6,15.6,16.7,34.8,24.2,51c3.8,8.1,7.2,15.5,9.8,21.4c1.3,2.9,2.5,5.5,3.4,7.5c0.7,1.6,1.2,2.9,1.6,3.7
		c0,0.3,0.1,0.7,0.1,1.3c0.1,0.9,0.1,2.2,0.1,3.7c0,8.3-0.9,23.4-2.3,41.2c-2.1,26.6-5.3,59.4-8,86.8c-1.3,13.7-2.5,26-3.4,35.6
		c-0.4,4.8-0.8,8.9-1,12.1c0,0.2,0,0.4,0,0.6c-29.1-1-57.7-2-85.9-3.1c-10.2-28-23.3-63.7-36-98c-9.5-25.6-18.8-50.4-26.5-70.4
		c-3.8-10-7.2-18.8-10.1-25.9c-1.7-4.2-3.1-7.8-4.4-10.7c-0.4-2.7-1-5.3-1.8-7.8c-3-8.8-4-14.9-4-18.2
		C607.9,1278.4,608.1,1277.6,608.2,1277.2z M586.9,1434.9c7.7-21.7,14.6-43.5,19.6-63.6c2-8,3.7-15.7,5-23
		c17,44.2,42.4,113.1,60.2,161.9c-38.4-1.5-75.9-3.2-112.3-4.9C568.5,1484,578.2,1459.5,586.9,1434.9z M366.9,1835.9
		c0,12.2-2.2,48.1-2.2,65.3c0,17.2,0.3-1.7,0.8,18.4c-6.9-0.5-15.4-0.8-25.4-0.8h-19.2c-13.2,0-22.5,0.3-41,0.8
		c0.5,23.8,0.9,65.2,1.2,91.6c0.3,26.4,0.9,108.5,2,138.1l-142.8,29.9c0,0-0.3-180.5-0.8-237.1c-0.5-48.6-1.2-106.4-2-173.3
		s-2-144.9-3.6-225.3c21.2,0.5,45.2,0.5,72.2,0c23.3,0,50.8,1.9,82.5,1.4s67.4,0.9,107.1-0.2c-0.5,10.1-0.8,22-0.8,35.7
		c-0.5,12.2-0.8,27-0.8,44.4v61.9c-7.4-0.5-16.7-0.8-27.8-0.8c-9.5,0-21.7,0.1-36.5,0.4s-32.3,0.7-52.4,1.2v29.3
		c0,9.5-0.1,21.2-0.4,34.9c-0.3,13.7-0.1,17.1,0.4,34.6H312c18.3,0,24.2-0.5,54.9-1.6V1835.9L366.9,1835.9z M709.2,1975.7
		c-6.8,33.1-16.9,59.9-30.3,80.4c-13.4,20.5-30.5,35.3-51.2,44.6s-45.2,13.9-73.5,13.9c-30.2,0-55.8-5.6-76.8-16.8
		s-38-27.8-51.2-49.7c-13.2-21.9-22.8-49-28.9-81.1c-6.1-32.2-9.1-69.4-9.1-111.9c0-40.4,2.4-77.4,7.3-110.7
		c4.9-33.4,13.5-62.1,25.9-86.2s29.2-42.9,50.5-56.3c21.2-13.4,48.4-20.1,81.5-20.1c33.6,0,61.3,6.2,83,18.6s38.7,30.3,51.2,53.7
		c12.4,23.4,20.9,51.9,25.6,85.5c4.6,33.6,6.9,71.9,6.9,114.8C719.7,1902.1,716,1942.6,709.2,1975.7z M1039.1,2116.6
		c-12.2,1-27.1,2.2-44.9,3.4c-17.7,1.3-38,2.4-60.8,3.4l-12.9-51.7c-4.1-16.7-9.1-30.3-15.2-53.9c-6.1-23.6-13.2-50.1-21.3-79.5
		c-0.5,0.5-1.5,0.8-3,0.8h-7.6l3,163.5h-39.6h-44.9c-17.2,0-36,0.2-56.3,0.8c0.5-40.6,1-87.5,1.5-140.7
		c0.5-45.6,0.9-100.4,1.1-164.3c0.3-63.9,2.7-131.5,2.7-212.2c22.8-4.1,104.8-1.8,122.6-1.8c70.5,0,103.2,4.2,135.9,36.4
		c32.7,32.2,62.6,76.1,62.6,139.5c0,33.5-3.5,61.4-14.9,83.7c-11.4,22.3-27,40.6-46.8,54.8c3.1,10.2,10.7,33.6,22.8,70.4
		c12.2,36.8,29.9,80.8,53.2,145.2C1065.8,2114.9,1053.3,2115.6,1039.1,2116.6z M1343.2,1742.2h-13.7c-7.4,0-5.3-0.1-15.6-0.4
		c-10.3-0.2-22.1-0.4-35.3-0.4v74.6c0,27.5,0.1,34.2,0.4,68.4c0.3,34.1,0.7,38.9,1.2,80.2c0.5,41.2,1,87.2,1.6,138
		c-10-0.5-21.9-0.8-35.7-0.8c-12.2,0-27.1,0.1-44.8,0.4c-17.7,0.3-38.5,0.7-62.3,1.2c0.5-32.8,0.8-70.6,0.8-113.4
		c0-36.5-0.1-47.5-0.4-98.8s-0.7-109.2-1.2-173.7l-58.1,0.6c0.5-7.4-1-21.7-1-34.4c0-10.6-2.9-20.2-3.1-37.6
		c-0.3-17.4-1.4-38.4-1.9-64.3c0,0,215.2,14.3,269.3,22.1c-0.5,11.1-4,38.6-4.2,55.8C1338.8,1676.6,1342.7,1720,1343.2,1742.2z
		 M1339.2,1288.1c-1.5,1.8-2.9,3.7-3.9,5.8c-1.1,2.1-1.9,4.6-1.9,7.5c0,2.6-0.2,7.8-0.5,14.6c-1.1,23.9-3.8,68.7-6.3,111.2
		c-1.9,31.9-14.1,73.2-20.2,98.3c-24.8-0.2-49.7-0.5-74.5-0.8c-1.2-9.9-1.8-20.2-1.8-30.8c0-50.5,12.4-107.9,24.9-155.5
		c6.3-23.9,12.5-45.3,17.3-62.4c0.5-1.9,1-3.8,1.5-5.6c21.4-5.6,44.2-16.5,66.9-30.1c35.4-21.3,70.7-49,98.7-73
		c14-12,26.2-23.1,35.6-32c6.7-6.3,12-11.5,15.7-15.2c3,2.3,6.4,4.7,10.5,7.2c8.4,5.2,19,10.7,31.3,16.5
		c-12.4,14.8-28.6,29.4-46.4,43.2c-32,24.8-69.1,47.2-98.4,65.6c-14.6,9.2-27.3,17.5-36.7,24.8
		C1346.1,1281,1342.2,1284.5,1339.2,1288.1z M1577.3,2114.9c-7.7-21.8-16.4-46.8-26.1-74.9c-8.7-23.9-19-43.4-30.7-75.9
		c-11.8-32.5-24.9-68.6-39.2-108.1c1,27.1,2.3,60.1,3.8,99.2c1.5,39,4.1,86.4,7.7,142.1c-10.2,0-22-0.2-35.3-0.8
		c-11.3-0.5-25-0.9-41.1-1.2c-16.1-0.2-33.9-0.4-53.4-0.4c0.5-38.5,0.8-83.5,0.8-135.1c0-44.2-0.3-97.5-0.8-159.7s1-121.2,0-200.3
		c11.3-0.5,102.8-19.1,121.8-20.1c6.7,20.3,16.8,45.9,26,72.4c7.7,22.9,17.2,50.7,28.4,83.5c11.3,32.8,24.3,70,39.2,111.6
		c-1.5-31.7-3.8-72-6.9-120.6c-3.1-48.7-7.4-85.2-13.1-153.4c9.7,0.5,105.8,0.7,125.3,0.2c0.5,42.7-1.9,442.9,0.7,530.4
		C1676,2104.8,1598.8,2113.3,1577.3,2114.9z M1824.6,2123.2H1716v-160.3c0-49.7-0.3-107.9-0.8-174.5s-1.3-110.4-2.4-188.1h36.5h44.8
		c17.7,0,38.5-0.3,62.3-0.8c0,52.4,0.3,80.2,0.8,140.5c0.5,51.3,0.9,110,1.2,176.1c0.3,66.1,0.9,135.1,2,207.1H1824.6L1824.6,2123.2
		z M2159.3,1653.1c-0.5,12.2-0.9,26.9-1.1,44c-0.2,17.2-0.1,23.7,0.4,46h-20.8c-6.9,0-15.2-0.1-24.8-0.4c-9.7-0.3-20.6-0.4-33-0.4
		v74.6c0,27.5,0.1,71.4,0.4,105.5c0.2,34.1,0.6,34.6,1.1,75.8c0.5,41.3,1,87.3,1.5,138c-9.4-0.5-20.5-0.8-33.4-0.8
		c-11.4,0-25.3,0.1-41.9,0.4c-16.6,0.3-36,0.7-58.2,1.2c0.5-32.8,0.7-70.6,0.7-113.4c0-36.5-0.1-43.2-0.4-94.5
		c-0.2-51.3-0.6-109.2-1.1-173.7l-60.3,0.6c0.5-7.4,2.1-19.2,2.1-31.9c0-10.6-2.9-24.3-3.1-41.8c-0.3-17.5-0.6-38.1-1.1-64
		c0,0,226.1-8.1,274.5-9.1C2160.3,1620.4,2159.8,1639.4,2159.3,1653.1z M2310,1737.1c0.2,8.7,0.4,34.1,0.4,40.9v21.4
		c2.9,0,11.5,0.1,25.6,0.4c14.2,0.3,35.9-0.1,65.2-1.2v38.1v42.4c0,16.1,0.2,16.5,0.7,36h-25.7c-8.3,0-17.8-0.1-28.6-0.4
		s-22.2-0.4-34.5-0.4v19c0,12.7,0.7,47.1,2.2,68.3c7.8,0.5,17.1,1.1,27.9,1.6c8.8,0.5,19.5,1.2,32.2,2s26.9,1.5,42.5,2
		c-0.5,9-0.7,20.1-0.7,33.3c-0.5,11.1-0.7,24.8-0.7,41.2v79.8c-21.5-0.5-207.3-16-238.1-16.5c-0.5-46,5.6-108.5,5.1-165.6
		c-0.5-49.2-1.1-107.1-1.8-173.7s-1.6-151.1-2.6-231.5c13.7,0,194.4-21.5,238.9-22.1v70.3v44c0,17.2,0.5,18.6,1.5,39.2
		c-13.7,0.5-27.1,0.8-40.3,0.8c-11.2,0.5-23.1,0.8-35.5,0.8c-12.5,0-23.6,0.3-33.4,0.8C2309.9,1718.7,2309.7,1728.4,2310,1737.1z"/>
</g>
</svg>
